<svg xmlns="http://www.w3.org/2000/svg" width="1629.432" height="528.575" viewBox="0 0 1629.432 528.575">
  <g id="FOR_logo" opacity="0.75">
    <path id="FOR_logo-2" data-name="FOR_logo" d="M368.841-51.053H3.2V-49.6c31.2,5.808,54.411,34.125,54.411,78.415V381.681c0,49.372-23.941,74.785-53.686,80.593v1.452H254.215v-1.452c-48.607-5.808-78.352-29.043-78.352-80.593V204.521h41.352c50.784,0,71.1,53,77.627,93.662h1.451V106.5h-1.451c-6.529,39.934-26.843,94.388-77.627,94.388H175.863V40.431c0-72.606,29.019-86.4,53.686-86.4h2.9c29.745,0,53.686,21.056,79.078,50.824,29.745,34.851,54.411,82.771,69.646,121.979h1.451Zm304.7,520.588c142.92,0,259-120.527,259-267.192,0-150.3-112.45-261.383-259-261.383-142.92,0-259.722,119.8-259.722,267.192C413.821,359.173,527,469.535,673.543,469.535Zm9.431-3.63c-81.979,0-135.665-116.9-135.665-288.247C547.309,33.9,590.838-55.41,663.386-55.41c84.881,0,145.1,118.348,145.1,289.7C808.483,379.5,763.5,465.9,682.974,465.9Zm677.6-176.434c-24.667-55.181-47.882-77.689-138.567-79.141,107.371-14.521,182.821-67.524,182.821-137.952,0-78.415-66.019-123.431-189.351-123.431H978.246V-49.6c34.1,6.535,54.411,37.029,54.411,81.319V380.955c0,45.016-19.588,74.785-54.411,81.319v1.452h227.8v-1.452c-35.548-6.535-55.136-35.577-55.136-81.319V215.412c50.058,3.63,65.293,23.234,89.234,90.758l26.843,68.25c13.784,34.125,34.823,74.059,47.156,89.306h149.449v-1.452c-21.039-13.8-47.882-48.646-66.744-91.484ZM1208.949-47.423c47.882,0,74.725,45.742,74.725,128.513,0,84.223-37.725,129.965-131.312,129.965h-1.451V31.718c0-35.577,17.411-79.141,57.313-79.141Zm351.859,511.875c39.9,0,71.823-29.769,71.823-71.154s-31.921-69.7-71.823-69.7c-42.8,0-72.548,28.316-72.548,69.7S1518,464.452,1560.807,464.452Z" transform="translate(-3.198 59.04)" fill="#f7e7ce"/>
  </g>
</svg>
