<svg xmlns="http://www.w3.org/2000/svg" width="1405" height="549" viewBox="0 0 1405 549">
  <g id="Group_8" data-name="Group 8" transform="translate(-210 -80)">
    <text id="Couture" transform="translate(210 530)" fill="#be6c42" font-size="396" font-family="SegoeUI, Segoe UI"><tspan x="0" y="0">Couture</tspan></text>
    <text id="LATEST_COLLECTIONS" data-name="LATEST COLLECTIONS" transform="translate(1345 593)" fill="#713c25" font-size="24" font-family="SegoeUI, Segoe UI"><tspan x="0" y="0">LATEST COLLECTIONS</tspan></text>
    <g id="FOR_logo" transform="translate(266.198 134.959)">
      <path id="FOR_logo-2" data-name="FOR_logo" d="M44.526-58.138H3.2v.164c3.526.656,6.15,3.854,6.15,8.856V-9.266c0,5.576-2.706,8.446-6.068,9.1V0H31.57V-.164c-5.494-.656-8.856-3.28-8.856-9.1V-29.274h4.674c5.74,0,8.036,5.986,8.774,10.578h.164V-40.344h-.164c-.738,4.51-3.034,10.66-8.774,10.66H22.714V-47.806c0-8.2,3.28-9.758,6.068-9.758h.328c3.362,0,6.068,2.378,8.938,5.74A50.6,50.6,0,0,1,45.92-38.048h.164ZM78.966.656C95.12.656,108.24-12.956,108.24-29.52c0-16.974-12.71-29.52-29.274-29.52-16.154,0-29.356,13.53-29.356,30.176C49.61-11.808,62.4.656,78.966.656Zm1.066-.41C70.766.246,64.7-12.956,64.7-32.308c0-16.236,4.92-26.322,13.12-26.322,9.594,0,16.4,13.366,16.4,32.718C94.218-9.512,89.134.246,80.032.246ZM156.62-19.68c-2.788-6.232-5.412-8.774-15.662-8.938,12.136-1.64,20.664-7.626,20.664-15.58,0-8.856-7.462-13.94-21.4-13.94H113.406v.164c3.854.738,6.15,4.182,6.15,9.184V-9.348c0,5.084-2.214,8.446-6.15,9.184V0h25.748V-.164c-4.018-.738-6.232-4.018-6.232-9.184v-18.7c5.658.41,7.38,2.624,10.086,10.25l3.034,7.708A50.283,50.283,0,0,0,151.372,0h16.892V-.164c-2.378-1.558-5.412-5.494-7.544-10.332ZM139.482-57.728c5.412,0,8.446,5.166,8.446,14.514,0,9.512-4.264,14.678-14.842,14.678h-.164V-48.79c0-4.018,1.968-8.938,6.478-8.938ZM179.252.082a7.914,7.914,0,0,0,8.118-8.036,7.78,7.78,0,0,0-8.118-7.872c-4.838,0-8.2,3.2-8.2,7.872A7.794,7.794,0,0,0,179.252.082Z" transform="translate(-3.198 59.04)" fill="#713c25"/>
    </g>
    <text id="future" transform="translate(482 279)" fill="#f7e7ce" font-size="184" font-family="SegoeUI, Segoe UI"><tspan x="0" y="0">future</tspan></text>
  </g>
</svg>
